<?xml version="1.0" encoding="utf-8"?>
<!-- Generator: Adobe Illustrator 25.2.1, SVG Export Plug-In . SVG Version: 6.00 Build 0)  -->
<svg version="1.1" xmlns="http://www.w3.org/2000/svg" xmlns:xlink="http://www.w3.org/1999/xlink" x="0px" y="0px"
	 viewBox="0 0 434.51 132.71" style="enable-background:new 0 0 434.51 132.71;" xml:space="preserve">
<style type="text/css">
	.st0{fill:#004A98;}
	.st1{fill:#FFFFFF;}
</style>
<g id="Colores_Corporativos">
</g>
<g id="ORIGINAL">
</g>
<g id="favicon">
</g>
<g id="Logoweb_white">
</g>
<g id="Logoweb">
	<g>
		<g>
			<path class="st0" d="M72.36,120.85v-16.83h5.42c2.71,0,4.88,0.78,6.52,2.33c1.64,1.55,2.46,3.58,2.46,6.09
				c0,2.52-0.82,4.56-2.46,6.1c-1.64,1.54-3.81,2.31-6.52,2.31H72.36z M74.63,106.09v12.69h3.14c2.06,0,3.69-0.56,4.87-1.68
				c1.19-1.12,1.78-2.67,1.78-4.66c0-1.97-0.59-3.53-1.78-4.65c-1.19-1.13-2.81-1.69-4.87-1.69H74.63z"/>
			<polygon class="st0" points="106.72,104.02 106.72,106.09 98.65,106.09 98.65,111.42 105.93,111.42 105.93,113.44 98.65,113.44 
				98.65,118.78 106.72,118.78 106.72,120.85 96.38,120.85 96.38,104.02 			"/>
			<path class="st0" d="M127.65,116.36c0,1.47-0.57,2.66-1.71,3.55c-1.15,0.88-2.56,1.31-4.2,1.31c-1.47,0-2.76-0.41-3.89-1.22
				c-1.12-0.81-1.9-1.93-2.33-3.34l2.18-0.85c0.15,0.5,0.35,0.96,0.62,1.36c0.27,0.41,0.57,0.76,0.93,1.04
				c0.36,0.29,0.75,0.52,1.18,0.68c0.43,0.16,0.88,0.25,1.36,0.25c1.04,0,1.89-0.25,2.55-0.76c0.66-0.51,0.99-1.19,0.99-2.03
				c0-0.71-0.27-1.31-0.82-1.81c-0.51-0.49-1.47-0.96-2.87-1.41c-1.42-0.49-2.3-0.82-2.64-0.99c-1.88-0.91-2.82-2.25-2.82-4.02
				c0-1.24,0.52-2.29,1.56-3.17c1.06-0.88,2.35-1.31,3.89-1.31c1.35,0,2.52,0.33,3.51,0.99c0.99,0.64,1.65,1.45,1.98,2.42
				l-2.13,0.85c-0.2-0.63-0.59-1.15-1.18-1.57c-0.59-0.41-1.3-0.62-2.14-0.62c-0.89,0-1.64,0.23-2.25,0.7
				c-0.61,0.44-0.92,1.01-0.92,1.72c0,0.58,0.24,1.08,0.72,1.51c0.53,0.42,1.68,0.92,3.44,1.5c1.8,0.58,3.08,1.29,3.85,2.13
				C127.27,114.11,127.65,115.13,127.65,116.36"/>
			<path class="st0" d="M138.11,120.85h-2.52l6.68-16.83h2.57l6.68,16.83H149l-1.71-4.56h-7.45L138.11,120.85z M143.51,106.67
				l-2.89,7.59h5.89l-2.89-7.59H143.51z"/>
			<path class="st0" d="M162.81,120.85h-2.28v-16.83h6.04c1.54,0,2.84,0.48,3.92,1.45c1.08,0.96,1.62,2.15,1.62,3.56
				c0,1.16-0.4,2.19-1.2,3.09c-0.8,0.9-1.81,1.48-3.03,1.73l-0.05,0.07l4.97,6.84v0.1h-2.7l-4.77-6.82h-2.52V120.85z M162.81,106.09
				v5.92h3.66c0.92,0,1.71-0.28,2.35-0.86c0.64-0.57,0.97-1.28,0.97-2.13c0-0.79-0.3-1.47-0.9-2.06c-0.6-0.58-1.36-0.88-2.26-0.88
				H162.81z"/>
			<path class="st0" d="M184.03,120.85h-2.28v-16.83h6.04c1.54,0,2.84,0.48,3.92,1.45c1.08,0.96,1.62,2.15,1.62,3.56
				c0,1.16-0.4,2.19-1.2,3.09c-0.8,0.9-1.81,1.48-3.03,1.73l-0.05,0.07l4.97,6.84v0.1h-2.7l-4.77-6.82h-2.52V120.85z M184.03,106.09
				v5.92h3.66c0.92,0,1.71-0.28,2.35-0.86c0.64-0.57,0.96-1.28,0.96-2.13c0-0.79-0.3-1.47-0.9-2.06c-0.6-0.58-1.36-0.88-2.26-0.88
				H184.03z"/>
			<path class="st0" d="M220.33,112.43c0,2.49-0.87,4.57-2.63,6.25c-1.76,1.69-3.92,2.54-6.48,2.54c-2.57,0-4.74-0.85-6.48-2.54
				c-1.75-1.68-2.62-3.76-2.62-6.25c0-2.49,0.87-4.58,2.62-6.25c1.75-1.69,3.91-2.54,6.48-2.54c2.57,0,4.73,0.85,6.48,2.56
				C219.45,107.88,220.33,109.96,220.33,112.43 M204.45,112.43c0,1.94,0.64,3.55,1.93,4.82c1.3,1.27,2.92,1.9,4.85,1.9
				c1.93,0,3.54-0.63,4.82-1.9c1.3-1.25,1.95-2.86,1.95-4.82c0-1.96-0.65-3.56-1.95-4.82c-1.29-1.27-2.9-1.9-4.82-1.9
				c-1.93,0-3.55,0.63-4.85,1.9C205.09,108.88,204.45,110.49,204.45,112.43"/>
			<polygon class="st0" points="239.89,120.85 229.95,120.85 229.95,104.02 232.23,104.02 232.23,118.78 239.89,118.78 			"/>
			<polygon class="st0" points="259.14,120.85 249.2,120.85 249.2,104.02 251.48,104.02 251.48,118.78 259.14,118.78 			"/>
			<path class="st0" d="M285.42,112.43c0,2.49-0.87,4.57-2.62,6.25c-1.76,1.69-3.93,2.54-6.48,2.54c-2.57,0-4.74-0.85-6.48-2.54
				c-1.75-1.68-2.62-3.76-2.62-6.25c0-2.49,0.88-4.58,2.62-6.25c1.75-1.69,3.91-2.54,6.48-2.54c2.57,0,4.73,0.85,6.48,2.56
				C284.54,107.88,285.42,109.96,285.42,112.43 M269.53,112.43c0,1.94,0.64,3.55,1.93,4.82c1.3,1.27,2.92,1.9,4.85,1.9
				c1.93,0,3.54-0.63,4.82-1.9c1.3-1.25,1.95-2.86,1.95-4.82c0-1.96-0.65-3.56-1.95-4.82c-1.29-1.27-2.9-1.9-4.82-1.9
				c-1.93,0-3.55,0.63-4.85,1.9C270.18,108.88,269.53,110.49,269.53,112.43"/>
			<path class="st0" d="M305.98,116.36c0,1.47-0.57,2.66-1.71,3.55c-1.16,0.88-2.56,1.31-4.21,1.31c-1.47,0-2.76-0.41-3.88-1.22
				c-1.12-0.81-1.9-1.93-2.33-3.34l2.18-0.85c0.15,0.5,0.36,0.96,0.62,1.36c0.27,0.41,0.57,0.76,0.93,1.04
				c0.36,0.29,0.75,0.52,1.18,0.68c0.43,0.16,0.88,0.25,1.36,0.25c1.04,0,1.89-0.25,2.55-0.76c0.66-0.51,0.99-1.19,0.99-2.03
				c0-0.71-0.27-1.31-0.82-1.81c-0.51-0.49-1.47-0.96-2.87-1.41c-1.42-0.49-2.3-0.82-2.65-0.99c-1.88-0.91-2.82-2.25-2.82-4.02
				c0-1.24,0.52-2.29,1.56-3.17c1.06-0.88,2.35-1.31,3.89-1.31c1.35,0,2.52,0.33,3.51,0.99c0.99,0.64,1.65,1.45,1.98,2.42
				l-2.13,0.85c-0.2-0.63-0.59-1.15-1.18-1.57c-0.58-0.41-1.3-0.62-2.14-0.62c-0.89,0-1.64,0.23-2.25,0.7
				c-0.61,0.44-0.92,1.01-0.92,1.72c0,0.58,0.24,1.08,0.72,1.51c0.53,0.42,1.68,0.92,3.44,1.5c1.8,0.58,3.08,1.29,3.85,2.13
				C305.59,114.11,305.98,115.13,305.98,116.36"/>
		</g>
		<path class="st0" d="M43.19,85.64H11.96l0.01-0.54h0.76c2.11,0,3.82-1.52,3.86-3.41v-30.1c-0.04-1.89-1.75-3.42-3.86-3.42h-0.76
			l-0.01-0.54h18.32l-0.01,0.54h-0.76c-2.11,0-3.82,1.52-3.86,3.42v31.73h7.92c6.03,0,9.94-3.37,11.81-8.76h0.6L43.19,85.64z"/>
		<path class="st0" d="M99.36,81.94c1.31,2.22,3.37,3.15,5.15,3.15h0.51v0.54H85.79V85.1h0.53c1.56,0,3.25-1.23,2.33-3.41
			l-2.97-6.71H71.53l-3.09,6.71c-0.99,2.17,0.75,3.41,2.31,3.41h0.53v0.54H58.34v-0.54h0.54c1.71,0,3.79-0.9,5.08-3.06l13.95-28.39
			c0.43-0.83,2.82-5.53,2.97-7.11h0.55L99.36,81.94z M84.67,72.69l-5.9-13.33l-6.18,13.33H84.67z"/>
		<path class="st0" d="M148.57,56.05l-0.61-0.01V55.4c0.01-3.31-2.33-5.46-6.04-5.54h-8.1v31.86c0.06,1.87,1.77,3.37,3.86,3.37h0.76
			l0.01,0.54h-18.33l0.01-0.54h0.76c2.08,0,3.77-1.48,3.86-3.33V49.86h-8.11c-3.7,0.08-6.05,2.23-6.04,5.54v0.64L110,56.05v-9.46
			c1.12,0.42,4.55,0.96,7.15,0.99h24.27c2.6-0.03,6.04-0.56,7.15-0.99V56.05z"/>
		<path class="st0" d="M182.11,85.63h-18.32l0.01-0.54h0.76c2.11,0,3.82-1.52,3.86-3.42V51.56c-0.05-1.88-1.76-3.39-3.86-3.39h-0.76
			l-0.01-0.54h18.32l-0.01,0.54h-0.76c-2.1,0-3.8,1.5-3.86,3.38v30.13c0.04,1.89,1.75,3.42,3.86,3.42h0.76L182.11,85.63z"/>
		<path class="st0" d="M235.88,56.05l-0.61-0.01V55.4c0.01-3.31-2.33-5.46-6.04-5.54h-8.1v31.86c0.06,1.87,1.76,3.37,3.86,3.37h0.76
			l0.01,0.54h-18.33l0.01-0.54h0.76c2.08,0,3.77-1.48,3.86-3.33V49.86h-8.11c-3.7,0.08-6.04,2.23-6.04,5.54v0.64l-0.61,0.01v-9.46
			c1.11,0.42,4.55,0.96,7.15,0.99h24.27c2.6-0.03,6.04-0.56,7.15-0.99V56.05z"/>
		<path class="st0" d="M296.39,47.62v0.54h-0.98c-1.69,0-3.08,1.07-3.18,2.57v21.14c0,8.92-6.51,14.52-17.36,14.52
			c-12.92,0-19.66-5.56-19.66-14.42V50.86c-0.04-1.56-1.45-2.69-3.19-2.69h-0.98v-0.54h17.38v0.54h-0.98
			c-1.71,0-3.11,1.09-3.18,2.61V71.5c0,7.72,4.49,12.52,11.71,12.52c7.37,0,11.96-4.53,11.98-11.83V50.78
			c-0.07-1.52-1.47-2.61-3.19-2.61h-0.98v-0.54H296.39z"/>
		<path class="st0" d="M334.1,47.63c14.25,0,23.13,7.28,23.13,19.02c0,11.72-8.88,18.99-23.13,18.99h-21.89l0.01-0.54h0.76
			c2.11,0,3.82-1.52,3.86-3.41V51.27c0-1.75-1.85-3.11-3.85-3.11h-0.76l-0.01-0.54L334.1,47.63z M325.9,83.33h7.46
			c8.65,0,14.03-6.39,14.03-16.68c0-10.32-5.4-16.73-14.03-16.73h-7.46V83.33z"/>
		<path class="st0" d="M375.08,24.65l-2.3-7.05c2.44-2.11,7-3.35,11.05-3.35c7.26,0,12.53,3.47,12.53,9.27
			c0,7.56-9.64,13.93-14.41,17.53h9.93c2.87,0,4.54-1.28,6.24-4.44h0.48l-2.89,10.36h-23.03V46.5c6.37-6.86,15.96-16.11,15.96-23.5
			c0-4.35-2.48-7.02-6.48-6.83c-4.22,0.23-6.65,3.12-6.6,8.47H375.08z"/>
		<path class="st0" d="M426.4,20.92l-13.44,0.97l-1.43,5.16c10.69-2.47,17.72,2.08,17.36,9.94c-0.52,11.25-15.63,14.36-22.62,11.39
			l0.1-0.46c4.09,0.14,14.19-2.86,14.69-10.29c0.38-5.58-5.52-8.01-13.05-5.28l-0.43-0.24l3.93-15.57l12.46-0.96
			c2.01,0,3.09-0.92,3.83-2.29h0.48L426.4,20.92z"/>
		<g>
			<path class="st0" d="M367.4,84.8c-3.68,0-6.67-2.99-6.67-6.67s2.99-6.67,6.67-6.67s6.67,2.99,6.67,6.67S371.08,84.8,367.4,84.8z
				 M367.4,72.29c-3.22,0-5.84,2.62-5.84,5.84s2.62,5.84,5.84,5.84c3.22,0,5.84-2.62,5.84-5.84S370.62,72.29,367.4,72.29z"/>
		</g>
		<g>
			<path class="st0" d="M365.23,74.02h1.7c0.85,0,1.54,0.21,2.07,0.63c0.53,0.42,0.8,0.96,0.8,1.62c0,0.53-0.17,0.99-0.52,1.39
				c-0.34,0.4-0.88,0.69-1.61,0.85l2.28,3.36h-1.23l-2.18-3.23h-0.24v3.23h-1.07V74.02z M366.31,74.97v2.74
				c1.58,0.03,2.37-0.42,2.37-1.38c0-0.33-0.09-0.6-0.28-0.82c-0.18-0.21-0.43-0.36-0.74-0.43
				C367.35,75.01,366.9,74.97,366.31,74.97z"/>
		</g>
	</g>
</g>
</svg>
